<?xml version="1.0" standalone="no"?>
<!DOCTYPE svg PUBLIC "-//W3C//DTD SVG 20010904//EN"
 "http://www.w3.org/TR/2001/REC-SVG-20010904/DTD/svg10.dtd">
<svg version="1.0" xmlns="http://www.w3.org/2000/svg"
 width="267.000000pt" height="267.000000pt" viewBox="0 0 267.000000 267.000000"
 preserveAspectRatio="xMidYMid meet">
<metadata>
Created by potrace 1.11, written by Peter Selinger 2001-2013
</metadata>
<g transform="translate(0.000000,267.000000) scale(0.100000,-0.100000)"
fill="#000000" stroke="none">
<path d="M1188 2665 c-2 -1 -23 -5 -48 -8 -25 -4 -56 -9 -70 -12 -14 -3 -36
-7 -50 -10 -30 -5 -180 -57 -232 -79 -63 -27 -203 -111 -264 -159 -98 -75
-162 -139 -254 -253 -93 -114 -207 -357 -237 -504 -37 -179 -41 -380 -12 -539
76 -417 343 -774 714 -955 203 -100 360 -138 575 -140 172 -1 258 10 399 51
133 38 268 103 391 187 97 66 261 230 328 328 106 155 192 361 218 522 3 21 8
48 10 60 12 54 11 279 -1 366 -13 88 -53 249 -75 295 -5 11 -25 55 -44 98
-114 253 -349 491 -615 622 -103 51 -263 102 -373 118 -77 12 -350 21 -360 12z"/>
</g>
</svg>
